<svg id="Layer_1" data-name="Layer 1" xmlns="http://www.w3.org/2000/svg" viewBox="0 0 234.9 112.59"><path d="M31.8,148.05c15.18.18,30.07-2.51,42.75-11.25,11.24-7.76,19-19.55,25.87-31.07,8.86-14.74,16.57-32,29.7-43.54,5.77-5.06,10.89-3.44,16,1.41,5.85,5.57,10.73,12.22,16.14,18.19a1.05,1.05,0,0,0,1.06.22c21.62-6.86,70.1-60,84.19-19.08,1.88,5.45,6.19,20.92-1.82,23.66-7.07,2.41-13.31-11.46-17.6-15.17C213.2,58.58,195,81.88,182.59,87.93c-15.17,7.37-27.92-7.35-41.18-12.07-15-5.32-22.36,13.47-27.13,23.89-4.52,9.85-9.14,19.57-16,28.06-6.25,7.74-14.51,13.68-23.14,18.5a85.19,85.19,0,0,1-28.46,10.05,48.11,48.11,0,0,1-14.67,0,33,33,0,0,1-7.16-2.08c-1.55-.63,5-5.08,5.7-5.36,1.24-.49.14-1.46-.84-1.08a16,16,0,0,0-7.38,6.28c-.27.39-.2.7.24.89,19.83,8.93,44.12-1.11,61-12.18a76.69,76.69,0,0,0,23.94-25.48c6.9-11.68,10.34-26.1,19.36-36.4,7.88-9,17.67-2.15,25.68,2.65,7.2,4.32,15.4,8.54,24.07,7.53,16.75-2,35.66-34.28,51.89-16.69,3.81,4.13,7.71,13.07,14.12,13.68,5.78.54,8.7-3.73,9.33-9,1.4-11.56-4.24-30.26-17.37-32.82-15.8-3.09-32.48,10.17-44.62,18.43-7.43,5.05-14.77,10.51-22.9,14.4-.73.35-1.47.66-2.22,1-1.67.69-1.76-.22-2.89-1.49-1.92-2.14-3.79-4.33-5.65-6.51a113.35,113.35,0,0,0-9.73-10.58c-6.73-6.09-13.26-4.36-19.48,1.47-10.9,10.19-18,24.61-25.41,37.35C94.89,112,87.82,123.72,77.57,132.63,65,143.53,48.71,146.89,32.48,146.7c-.9,0-2,1.32-.69,1.34Z" transform="translate(-22.18 -45.85)"/><path d="M231.17,66.63a5.8,5.8,0,0,0,2.07,4.12c.5.5,2.33-.23,1.79-.76a5.39,5.39,0,0,1-1.93-3.88c0-.64-1.94-.25-1.93.52Z" transform="translate(-22.18 -45.85)"/><path d="M243.1,68.21c.9-1.93,1.1-4.07,2-6,.16-.36-1.67-.19-1.91.32-.9,1.93-1.1,4.08-2,6C241,68.89,242.86,68.72,243.1,68.21Z" transform="translate(-22.18 -45.85)"/><path d="M246.17,87.63a63.15,63.15,0,0,0,3,19c.22.69,2.15.15,1.93-.52a63.15,63.15,0,0,1-3-19c0-.62-1.93-.24-1.93.52Z" transform="translate(-22.18 -45.85)"/><path d="M245.17,89.63a23.74,23.74,0,0,0,10.06,13.08c.48.3,2.13-.49,1.82-.68a23.4,23.4,0,0,1-10-12.92c-.17-.49-2.09.08-1.94.52Z" transform="translate(-22.18 -45.85)"/></svg>